<svg width="24" height="24" viewBox="0 0 24 24" fill="none" xmlns="http://www.w3.org/2000/svg">
<path fill-rule="evenodd" clip-rule="evenodd" d="M22.8839 2.88388C23.372 2.39573 23.372 1.60427 22.8839 1.11612C22.3957 0.627961 21.6043 0.627961 21.1161 1.11612L12 10.2322L2.88388 1.11612C2.39573 0.627961 1.60427 0.627961 1.11612 1.11612C0.627961 1.60427 0.627961 2.39573 1.11612 2.88388L10.2322 12L1.11612 21.1161C0.627961 21.6043 0.627961 22.3957 1.11612 22.8839C1.60427 23.372 2.39573 23.372 2.88388 22.8839L12 13.7678L21.1161 22.8839C21.6043 23.372 22.3957 23.372 22.8839 22.8839C23.372 22.3957 23.372 21.6043 22.8839 21.1161L13.7678 12L22.8839 2.88388Z" fill="#121212"/>
</svg>
