<svg width="23" height="22" viewBox="0 0 23 22" fill="none" xmlns="http://www.w3.org/2000/svg">
<path d="M6.16667 9.83342V19.1668C6.16667 19.4762 6.04375 19.7729 5.82496 19.9917C5.60617 20.2105 5.30942 20.3334 5 20.3334H2.66667C2.35725 20.3334 2.0605 20.2105 1.84171 19.9917C1.62292 19.7729 1.5 19.4762 1.5 19.1668V11.0001C1.5 10.6907 1.62292 10.3939 1.84171 10.1751C2.0605 9.95633 2.35725 9.83342 2.66667 9.83342H6.16667ZM6.16667 9.83342C7.40434 9.83342 8.59133 9.34175 9.4665 8.46658C10.3417 7.59141 10.8333 6.40443 10.8333 5.16675V4.00008C10.8333 3.38124 11.0792 2.78775 11.5168 2.35017C11.9543 1.91258 12.5478 1.66675 13.1667 1.66675C13.7855 1.66675 14.379 1.91258 14.8166 2.35017C15.2542 2.78775 15.5 3.38124 15.5 4.00008V9.83342H19C19.6188 9.83342 20.2123 10.0792 20.6499 10.5168C21.0875 10.9544 21.3333 11.5479 21.3333 12.1667L20.1667 18.0001C19.9989 18.7158 19.6806 19.3304 19.2598 19.7512C18.8389 20.1721 18.3383 20.3764 17.8333 20.3334H9.66667C8.73841 20.3334 7.84817 19.9647 7.19179 19.3083C6.53542 18.6519 6.16667 17.7617 6.16667 16.8334" stroke="black" stroke-width="1" stroke-linecap="round" stroke-linejoin="round"/>
</svg>
