<svg width="28" height="28" viewBox="0 0 28 28" fill="none" xmlns="http://www.w3.org/2000/svg">
<path d="M15.1667 13.9998C15.1667 13.3555 14.6444 12.8332 14 12.8332C13.3557 12.8332 12.8334 13.3555 12.8334 13.9998C12.8334 14.6442 13.3557 15.1665 14 15.1665C14.6444 15.1665 15.1667 14.6442 15.1667 13.9998Z" stroke="black" stroke-width="1.5" stroke-linecap="round" stroke-linejoin="round"/>
<path d="M23.3333 13.9998C23.3333 13.3555 22.811 12.8332 22.1667 12.8332C21.5223 12.8332 21 13.3555 21 13.9998C21 14.6442 21.5223 15.1665 22.1667 15.1665C22.811 15.1665 23.3333 14.6442 23.3333 13.9998Z" stroke="black" stroke-width="1.5" stroke-linecap="round" stroke-linejoin="round"/>
<path d="M6.99996 13.9998C6.99996 13.3555 6.47762 12.8332 5.83329 12.8332C5.18896 12.8332 4.66663 13.3555 4.66663 13.9998C4.66663 14.6442 5.18896 15.1665 5.83329 15.1665C6.47763 15.1665 6.99996 14.6442 6.99996 13.9998Z" stroke="black" stroke-width="1.5" stroke-linecap="round" stroke-linejoin="round"/>
</svg>
