<svg width="28" height="28" viewBox="0 0 28 28" fill="none" xmlns="http://www.w3.org/2000/svg">
<path fill-rule="evenodd" clip-rule="evenodd" d="M5.41675 8.1665C5.41675 6.64772 6.64796 5.4165 8.16675 5.4165H19.8334C21.3522 5.4165 22.5834 6.64772 22.5834 8.1665V15.6892L21.5304 14.6362L21.5201 14.6261C20.8783 14.0085 20.0964 13.635 19.2501 13.635C18.4038 13.635 17.6219 14.0085 16.9801 14.6261L16.9698 14.6362L16.3334 15.2725L13.3637 12.3029L13.3534 12.2928C12.7116 11.6752 11.9297 11.3017 11.0834 11.3017C10.2371 11.3017 9.45519 11.6752 8.81338 12.2928L8.80308 12.3029L5.41675 15.6892V8.1665ZM17.3941 16.3332L18.025 15.7022C18.4457 15.2993 18.8691 15.135 19.2501 15.135C19.6311 15.135 20.0544 15.2993 20.4751 15.7022L22.5834 17.8105V19.8332C22.5834 21.352 21.3522 22.5832 19.8334 22.5832H8.16675C6.64796 22.5832 5.41675 21.352 5.41675 19.8332V17.8105L9.85836 13.3689C10.2791 12.966 10.7024 12.8017 11.0834 12.8017C11.4644 12.8017 11.8878 12.966 12.3085 13.3689L15.8031 16.8635L18.1364 19.1968C18.4293 19.4897 18.9042 19.4897 19.1971 19.1969C19.49 18.904 19.49 18.4291 19.1971 18.1362L17.3941 16.3332ZM24.0834 17.4999V8.1665C24.0834 5.81929 22.1806 3.9165 19.8334 3.9165H8.16675C5.81954 3.9165 3.91675 5.81929 3.91675 8.1665V17.4999V19.8332C3.91675 22.1804 5.81954 24.0832 8.16675 24.0832H19.8334C22.1806 24.0832 24.0834 22.1804 24.0834 19.8332V17.4999ZM17.5001 8.58317C17.0859 8.58317 16.7501 8.91896 16.7501 9.33317C16.7501 9.74738 17.0859 10.0832 17.5001 10.0832H17.5117C17.926 10.0832 18.2617 9.74738 18.2617 9.33317C18.2617 8.91896 17.926 8.58317 17.5117 8.58317H17.5001Z" fill="#121212"/>
</svg>
