<svg width="21" height="24" viewBox="0 0 21 24" fill="none" xmlns="http://www.w3.org/2000/svg">
<path fill-rule="evenodd" clip-rule="evenodd" d="M15.8708 1.5C15.8708 1.08579 15.5351 0.75 15.1208 0.75C14.7066 0.75 14.3708 1.08579 14.3708 1.5V3.08333H6.53752V1.5C6.53752 1.08579 6.20173 0.75 5.78752 0.75C5.3733 0.75 5.03752 1.08579 5.03752 1.5V3.08333H3.45418C1.7513 3.08333 0.37085 4.46379 0.37085 6.16667V10.8333V20.1667C0.37085 21.8695 1.7513 23.25 3.45418 23.25H17.4542C19.1571 23.25 20.5375 21.8695 20.5375 20.1667V10.8333V6.16667C20.5375 4.46379 19.1571 3.08333 17.4542 3.08333H15.8708V1.5ZM19.0375 10.0833V6.16667C19.0375 5.29222 18.3286 4.58333 17.4542 4.58333H15.8708V6.16667C15.8708 6.58088 15.5351 6.91667 15.1208 6.91667C14.7066 6.91667 14.3708 6.58088 14.3708 6.16667V4.58333H6.53752V6.16667C6.53752 6.58088 6.20173 6.91667 5.78752 6.91667C5.3733 6.91667 5.03752 6.58088 5.03752 6.16667V4.58333H3.45418C2.57973 4.58333 1.87085 5.29222 1.87085 6.16667V10.0833H19.0375ZM1.87085 11.5833H19.0375V20.1667C19.0375 21.0411 18.3286 21.75 17.4542 21.75H3.45418C2.57973 21.75 1.87085 21.0411 1.87085 20.1667V11.5833Z" fill="#121212"/>
</svg>
