<svg width="20" height="20" viewBox="0 0 20 20" fill="none" xmlns="http://www.w3.org/2000/svg">
<path fill-rule="evenodd" clip-rule="evenodd" d="M1.72647 7.91402C1.72647 4.5632 4.44284 1.84683 7.79366 1.84683C11.1445 1.84683 13.8608 4.5632 13.8608 7.91402C13.8608 11.2648 11.1445 13.9812 7.79366 13.9812C4.44284 13.9812 1.72647 11.2648 1.72647 7.91402ZM7.79366 0.231445C3.55069 0.231445 0.111084 3.67105 0.111084 7.91402C0.111084 12.157 3.55069 15.5966 7.79366 15.5966C9.62407 15.5966 11.305 14.9565 12.6247 13.8879L18.0256 19.2887C18.341 19.6041 18.8524 19.6041 19.1678 19.2887C19.4832 18.9733 19.4832 18.4619 19.1678 18.1465L13.767 12.7457C14.8359 11.4258 15.4762 9.7447 15.4762 7.91402C15.4762 3.67105 12.0366 0.231445 7.79366 0.231445Z" fill="#121212"/>
</svg>
