<svg width="23" height="19" viewBox="0 0 23 19" fill="none" xmlns="http://www.w3.org/2000/svg">
<path fill-rule="evenodd" clip-rule="evenodd" d="M1.68921 6.37858C1.68921 4.21547 3.44276 2.46191 5.60588 2.46191H17.2725C19.4357 2.46191 21.1892 4.21547 21.1892 6.37858V13.3786C21.1892 15.5417 19.4357 17.2952 17.2725 17.2952H5.60588C3.44276 17.2952 1.68921 15.5417 1.68921 13.3786V6.37858ZM5.60588 0.961914C2.61433 0.961914 0.189209 3.38704 0.189209 6.37858V13.3786C0.189209 16.3701 2.61433 18.7952 5.60588 18.7952H17.2725C20.2641 18.7952 22.6892 16.3701 22.6892 13.3786V6.37858C22.6892 3.38704 20.2641 0.961914 17.2725 0.961914H5.60588ZM9.49175 5.73546C9.26005 5.59644 8.97148 5.5928 8.73635 5.72593C8.50122 5.85906 8.35588 6.10838 8.35588 6.37858V13.3786C8.35588 13.6488 8.50122 13.8981 8.73635 14.0312C8.97148 14.1644 9.26005 14.1607 9.49175 14.0217L15.3251 10.5217C15.551 10.3862 15.6892 10.142 15.6892 9.87858C15.6892 9.61513 15.551 9.371 15.3251 9.23546L9.49175 5.73546ZM13.4815 9.87858L9.85588 12.0539V7.70322L13.4815 9.87858Z" fill="#121212"/>
</svg>
