<svg width="21" height="21" viewBox="0 0 21 21" fill="none" xmlns="http://www.w3.org/2000/svg">
<path fill-rule="evenodd" clip-rule="evenodd" d="M16.2501 0.700195C15.176 0.700195 14.1459 1.12687 13.3864 1.88636L12.2198 3.05303L1.13642 14.1364C0.995766 14.277 0.916748 14.4678 0.916748 14.6667V19.3334C0.916748 19.7476 1.25253 20.0834 1.66675 20.0834H6.33341C6.53233 20.0834 6.72309 20.0043 6.86374 19.8637L17.9456 8.78188C17.9461 8.78137 17.9466 8.78087 17.9471 8.78036C17.9476 8.77986 17.9481 8.77935 17.9486 8.77884L19.1137 7.61369C19.8732 6.8542 20.2999 5.82411 20.2999 4.75003C20.2999 3.67595 19.8732 2.64586 19.1137 1.88636C18.3543 1.12687 17.3242 0.700195 16.2501 0.700195ZM17.4167 7.18937L18.0531 6.55303C18.5313 6.07484 18.7999 5.42629 18.7999 4.75003C18.7999 4.07377 18.5313 3.42521 18.0531 2.94702C17.5749 2.46884 16.9263 2.2002 16.2501 2.2002C15.5738 2.2002 14.9253 2.46884 14.4471 2.94702L13.8107 3.58336L17.4167 7.18937ZM12.7501 4.64402L2.41675 14.9774V18.5834H6.02275L16.3561 8.25003L12.7501 4.64402Z" fill="#121212"/>
</svg>
